The unbalanced Terry calls his best friend Julian that is having a bath telling that his beloved fiancée June is cheating him. Terry has followed her to the decadent Riverview Hotel, where she checked in to meet her lover in room 507. Terry explains to Julian that he brought a revolver to shoot her lover and is waiting for him in room 508, but his friend asks him to be calm that he will meet Terry in the hotel. Surprisingly Julian leaves the bathroom and explains the situation to June in the room in the beginning of a tense and dramatic night.
 
http://www.imdb.com/title/tt1176724/

Subtitles (srt) : Dutch, English.

Covers included.

Across the Hall gaat over Terry en zijn verloofde June. Als Terry erachter komt dat zijn verloofde vreemd gaat slaat hij door. Hij belt zijn beste vriend om hem te helpen, maar ondertussen begint alles echter een mysterieus tintje te krijgen...
 
http://www.moviemeter.nl/film/52415

Ondertitels (srt) : Engels, Nederlands.

Hoesjes bijgevoegd.

General
Complete name                    : Across the Hall-AC3-XviD-DVDRip[Eng]2009 2Lions-TeamAcross the Hall-AC3-XviD-DVDRip[Eng]2009.avi
Format                           : AVI
Format/Info                      : Audio Video Interleave
File size                        : 1.37 GiB
Duration                         : 1h 33mn
Overall bit rate                 : 2 101 Kbps
Writing application              : VirtualDubMod 1.6.0.0 SURROUND (build 2560/release)
Writing library                  : VirtualDubMod build 2560/release

Video
ID                               : 0
Format                           : MPEG-4 Visual
Format profile                   : Advanced Simple@L5
Format settings, BVOP            : Yes
Format settings, QPel            : No
Format settings, GMC             : No warppoints
Format settings, Matrix          : Custom
Codec ID                         : XVID
Codec ID/Hint                    : XviD
Duration                         : 1h 33mn
Bit rate                         : 1 643 Kbps
Width                            : 720 pixels
Height                           : 400 pixels
Display aspect ratio             : 16:9
Frame rate                       : 24.000 fps
Resolution                       : 8 bits
Colorimetry                      : 4:2:0
Scan type                        : Progressive
Bits/(Pixel*Frame)               : 0.238
Stream size                      : 1.07 GiB (78%)
Writing library                  : XviD 1.2.1 (UTC 2008-12-04)

Audio
ID                               : 1
Format                           : AC-3
Format/Info                      : Audio Coding 3
Format_Settings_ModeExtension    : CM (complete main)
Codec ID                         : 2000
Duration                         : 1h 33mn
Bit rate mode                    : Constant
Bit rate                         : 448 Kbps
Channel(s)                       : 6 channels
Channel positions                : Front: L C R, Side: L R, LFE
Sampling rate                    : 48.0 KHz
Stream size                      : 299 MiB (21%)
Alignment                        : Split accross interleaves
Interleave, duration             : 42 ms (1.00 video frame)
Interleave, preload duration     : 500 ms

Brought to you by 
2Lions Team

meer zien??
Kom dan eens kijken op ons forum 
                    
http://www.2lions.ons-forum.nl

2Lions the site to be for all your Dutch MOVIES and more

******************************************

DON T HIT AND RUN Niet gelijk afhaken als de FILM binnen is blijf seeden. 

Don`t quit after you finished the download, but keep seeding

There are fake torrents from uploaders who use our team name.
Those are not ours, or members from our team.
We 2Lions-Team are not responsible for the fake posts on our name

Wij 2Lions-Team zijn niet verantwoordelijk voor die zieke FAKE posten die op onze naam worden gedaan

Please check our site !!!

to the fakers , get a life !!!